<svg width="25" height="25" viewBox="0 0 25 25" fill="none" xmlns="http://www.w3.org/2000/svg">
<path d="M7.49908 24.8341C5.8987 24.8341 4.29832 24.2249 3.07992 23.0065C0.64312 20.5697 0.64312 16.6047 3.07992 14.1679L15.7603 1.48775C17.5613 -0.313499 20.4923 -0.313225 22.2927 1.48775C24.0937 3.28873 24.0937 6.21893 22.2927 8.01991L10.4713 19.8414C9.30637 21.0068 7.41017 21.0068 6.24501 19.8414C5.07985 18.6762 5.07985 16.7803 6.24501 15.6151L17.0295 4.83067C17.2438 4.61635 17.5912 4.61635 17.8058 4.83067C18.0201 5.04498 18.0201 5.39267 17.8058 5.60698L7.02133 16.3915C6.28425 17.1285 6.28425 18.328 7.02133 19.0651C7.75868 19.8024 8.95814 19.8019 9.69494 19.0651L21.5164 7.24359C22.8893 5.8707 22.8893 3.63669 21.5164 2.2638C20.1433 0.89063 17.9093 0.890904 16.5366 2.2638L3.85623 14.9445C1.8478 16.9532 1.8478 20.2217 3.85623 22.2304C5.86549 24.2392 9.13377 24.2389 11.1422 22.2304L22.7856 10.5871C22.9999 10.3727 23.3473 10.3727 23.5619 10.5871C23.7762 10.8014 23.7762 11.1491 23.5619 11.3634L11.9182 23.0068C10.6998 24.2249 9.09946 24.8341 7.49908 24.8341Z" fill="#CE0033"/>
</svg>
