<svg width="100" height="51" viewBox="0 0 100 51" fill="none" xmlns="http://www.w3.org/2000/svg">
<path d="M19.9654 37.0856C17.8191 34.8071 16.6667 32.25 16.6667 28.1048C16.6667 20.8143 21.7844 14.2785 29.2304 11.0483L31.0902 13.9183C24.1417 17.6779 22.7837 22.5542 22.2408 25.6292C23.3596 25.0506 24.8242 24.8471 26.2598 24.9802C30.019 25.3288 32.9817 28.4146 32.9817 32.25C32.9817 36.2771 29.7171 39.5417 25.69 39.5417C23.4544 39.5417 21.3167 38.5198 19.9654 37.0856Z" fill="#DE5D7D"/>
<path d="M62.8412 14.0707C64.9502 16.3838 66.0609 18.9593 65.9935 23.104C65.8749 30.3935 60.6516 36.8452 53.154 39.9539L51.3411 37.054C58.3499 33.4079 59.7869 28.5544 60.3798 25.4886C59.2518 26.0489 57.7841 26.2286 56.3508 26.0721C52.5978 25.6625 49.6857 22.5289 49.7481 18.694C49.8135 14.6674 53.1308 11.4564 57.1573 11.5218C59.3927 11.5582 61.5135 12.6147 62.8412 14.0707Z" fill="#DE5D7D"/>
</svg>
